<?xml version="1.0" encoding="utf-8"?>
<?xml-stylesheet type="text/xsl" href="rss1.xsl"?>
<rss version="2.0" xmlns:atom="http://www.w3.org/2005/Atom" xmlns:content="http://purl.org/rss/1.0/modules/content/" xmlns:dc="http://purl.org/dc/elements/1.1/" xmlns:media="http://search.yahoo.com/mrss/">
<channel>
 <title>Getty</title>
 <link>http://www.gettyimg.com/</link>
 <atom:link href="http://www.gettyimg.com/" rel="self" type="application/rss+xml" />

 
                <item>
                <title><![CDATA[【Music Videos】Katy Perry - Hot N Cold (2nd Version)]]></title>
                <link><![CDATA[https://sharemania.us/threads/katy-perry-hot-n-cold-2nd-version.251208/]]></link>
                <description><![CDATA[<article>
<blockquote class="messageText SelectQuoteContainer ugc baseHtml">
<img src="https://www.imgbly.com/ib/FHWvap63UU.jpg" class="bbCodeImage LbImage" alt="[​IMG]" data-url="https://www.imgbly.com/ib/FHWvap63UU.jpg" style=""> <br>
<div class="ToggleTriggerAnchor bbCodeSpoilerContainer">
<button type="button" class="button bbCodeSpoilerButton ToggleTrigger Tooltip JsOnly" data-target="> .SpoilerTarget"><span>Spoiler: <span class="SpoilerTitle">info</span></span></button>
<div class="SpoilerTarget bbCodeSpoilerText">[<br>
Format : MPEG-4<br>
Codec ID : M4V (M4V /mp42/isom)<br>
File size : 30.1 MiB<br>
Duration : 2 min 14 s<br>
Overall bit rate : 1 875 kb/s<br>
Movie name : Hot N Cold (2nd Version)<br>
Album/Performer : iTunes Plus AAC M4V<br>
Performer : Katy Perry<br>
Genre : Pop<br>
ContentType : Music Video<br>
Recorded date : UTC 2008-12-22 08:00:00<br>
Encoded date : UTC 2008-12-15 16:45:04<br>
Tagged date : UTC 2008-12-15 16:49:06<br>
Writing library : Apple QuickTime<br>
Service name : iTunes<br>
Cover : Yes<br>
Rating : None<br>
AppleStoreAccount : <a href="mailto:chris_reinbold@hotmail.com">chris_reinbold@hotmail.com</a><br>
AppleStoreCatalogID : 300198062<br>
AlbumTitleID : 217009<br>
GenreID : 1614<br>
AppleStoreCountry : France<br>
AppleStoreAccountType : iTunes<br>
PurchaseDate : 2010-09-15 03:06:09<br>
<br>
Video<br>
ID : 1<br>
Format : AVC<br>
Format/Info : Advanced Video Codec<br>
Format profile : Baseline@L3<br>
Format settings : 1 Ref Frames<br>
Format settings, CABAC : No<br>
Format settings, Reference frames : 1 frame<br>
Codec ID : avc1<br>
Codec ID/Info : Advanced Video Coding<br>
Duration : 2 min 14 s<br>
Bit rate : 1 555 kb/s<br>
Width : 640 pixels<br>
Height : 352 pixels<br>
Display aspect ratio : 16:9<br>
Frame rate mode : Constant<br>
Frame rate : 25.000 FPS<br>
Color space : YUV<br>
Chroma subsampling : 4:2:0<br>
Bit depth : 8 bits<br>
Scan type : Progressive<br>
Bits/(Pixel*Frame) : 0.276<br>
Stream size : 25.0 MiB (83%)<br>
Language : English<br>
Encoded date : UTC 2008-12-15 16:49:03<br>
Tagged date : UTC 2008-12-15 16:49:06<br>
Color range : Limited<br>
Color primaries : BT.601 NTSC<br>
Transfer characteristics : BT.709<br>
Matrix coefficients : BT.601<br>
Codec configuration box : avcC<br>
<br>
Audio<br>
ID : 2<br>
Format : AAC LC<br>
Format/Info : Advanced Audio Codec Low Complexity<br>
Codec ID : mp4a-40-2<br>
Duration : 2 min 14 s<br>
Source duration : 2 min 14 s<br>
Bit rate mode : Constant<br>
Bit rate : 256 kb/s<br>
Channel(s) : 2 channels<br>
Channel layout : L R<br>
Sampling rate : 44.1 kHz<br>
Frame rate : 43.066 FPS (1024 SPF)<br>
Compression mode : Lossy<br>
Stream size : 4.03 MiB (13%)<br>
Source stream size : 4.03 MiB (13%)<br>
Language : English<br>
Encoded date : UTC 2008-12-15 16:49:03<br>
Tagged date : UTC 2008-12-15 16:49:06<br>
<br>
Other<br>
ID : 3<br>
Type : Time code<br>
Format : QuickTime TC<br>
Language : English<br>
Encoded date : UTC 2008-12-15 16:49:06<br>
Tagged date : UTC 2008-12-15 16:49:06<br>
<br>
/SPOILER]<br>
<div class="bbCodeBlock bbCodeVfcHH HiddenContent">
<div class="attribution type">Hidden Content:</div>
<blockquote>You must reply before you can see the hidden data contained here.</blockquote>
</div>
<div class="bbCodeBlock bbCodeVfcHH HiddenContent">
<div class="attribution type">Hidden Content:</div>
<blockquote>You must reply before you can see the hidden data contained here.</blockquote>
</div></div>
</div>
<div class="messageTextEndMarker">&nbsp;</div>
</blockquote>
</article>]]></description>
                <author><![CDATA[Cealy921]]></author>
                </item>

                </channel></rss>